<mxfile host="65bd71144e">
    <diagram id="TznJzK_VmHKCRgi80I3K" name="NestJs modules">
        <mxGraphModel dx="2203" dy="1352" grid="1" gridSize="10" guides="1" tooltips="1" connect="1" arrows="1" fold="1" page="1" pageScale="1" pageWidth="850" pageHeight="1100" math="0" shadow="0">
            <root>
                <mxCell id="0"/>
                <mxCell id="1" parent="0"/>
                <mxCell id="3" value="Auth Controller" style="rounded=1;whiteSpace=wrap;html=1;fillColor=#f5f5f5;fontColor=#333333;strokeColor=#666666;" parent="1" vertex="1">
                    <mxGeometry x="160" y="260" width="120" height="60" as="geometry"/>
                </mxCell>
                <mxCell id="4" value="Users Controllers" style="rounded=1;whiteSpace=wrap;html=1;fillColor=#f5f5f5;fontColor=#333333;strokeColor=#666666;" parent="1" vertex="1">
                    <mxGeometry x="300" y="260" width="120" height="60" as="geometry"/>
                </mxCell>
                <mxCell id="5" value="Wallets Controller" style="rounded=1;whiteSpace=wrap;html=1;fillColor=#f5f5f5;fontColor=#333333;strokeColor=#666666;" parent="1" vertex="1">
                    <mxGeometry x="435" y="260" width="255" height="60" as="geometry"/>
                </mxCell>
                <mxCell id="6" value="Wallets Service" style="rounded=1;whiteSpace=wrap;html=1;fillColor=#dae8fc;strokeColor=#6c8ebf;" parent="1" vertex="1">
                    <mxGeometry x="435" y="340" width="255" height="60" as="geometry"/>
                </mxCell>
                <mxCell id="7" value="Wallet Entity" style="rounded=1;whiteSpace=wrap;html=1;fillColor=#d5e8d4;strokeColor=#82b366;" parent="1" vertex="1">
                    <mxGeometry x="435" y="420" width="120" height="60" as="geometry"/>
                </mxCell>
                <mxCell id="8" value="Rate Entity" style="rounded=1;whiteSpace=wrap;html=1;fillColor=#d5e8d4;strokeColor=#82b366;" parent="1" vertex="1">
                    <mxGeometry x="570" y="420" width="120" height="60" as="geometry"/>
                </mxCell>
                <mxCell id="9" value="Users Service" style="rounded=1;whiteSpace=wrap;html=1;fillColor=#dae8fc;strokeColor=#6c8ebf;" parent="1" vertex="1">
                    <mxGeometry x="300" y="340" width="120" height="60" as="geometry"/>
                </mxCell>
                <mxCell id="10" value="Users Entity" style="rounded=1;whiteSpace=wrap;html=1;fillColor=#d5e8d4;strokeColor=#82b366;" parent="1" vertex="1">
                    <mxGeometry x="160" y="420" width="260" height="60" as="geometry"/>
                </mxCell>
                <mxCell id="11" value="Auth Service" style="rounded=1;whiteSpace=wrap;html=1;fillColor=#dae8fc;strokeColor=#6c8ebf;" parent="1" vertex="1">
                    <mxGeometry x="160" y="340" width="120" height="60" as="geometry"/>
                </mxCell>
                <mxCell id="12" value="Wallet Module" style="text;html=1;strokeColor=none;fillColor=none;align=center;verticalAlign=middle;whiteSpace=wrap;rounded=0;" parent="1" vertex="1">
                    <mxGeometry x="435" y="210" width="255" height="30" as="geometry"/>
                </mxCell>
                <mxCell id="13" value="User Module" style="text;html=1;strokeColor=none;fillColor=none;align=center;verticalAlign=middle;whiteSpace=wrap;rounded=0;" parent="1" vertex="1">
                    <mxGeometry x="300" y="210" width="120" height="30" as="geometry"/>
                </mxCell>
                <mxCell id="14" value="Auth Module" style="text;html=1;strokeColor=none;fillColor=none;align=center;verticalAlign=middle;whiteSpace=wrap;rounded=0;" parent="1" vertex="1">
                    <mxGeometry x="160" y="210" width="120" height="30" as="geometry"/>
                </mxCell>
                <mxCell id="15" value="" style="shape=image;verticalLabelPosition=bottom;labelBackgroundColor=default;verticalAlign=top;aspect=fixed;imageAspect=0;image=https://upload.wikimedia.org/wikipedia/commons/a/a8/NestJS.svg;" parent="1" vertex="1">
                    <mxGeometry x="40" y="280" width="90" height="86.88" as="geometry"/>
                </mxCell>
                <mxCell id="17" value="" style="shape=image;verticalLabelPosition=bottom;labelBackgroundColor=default;verticalAlign=top;aspect=fixed;imageAspect=0;image=https://1000marcas.net/wp-content/uploads/2021/06/MongoDB-Logo.png;" parent="1" vertex="1">
                    <mxGeometry x="325" y="540" width="200" height="125" as="geometry"/>
                </mxCell>
                <mxCell id="18" value="TypeORM" style="rounded=1;whiteSpace=wrap;html=1;fillColor=#f8cecc;strokeColor=#b85450;" parent="1" vertex="1">
                    <mxGeometry x="160" y="500" width="530" height="60" as="geometry"/>
                </mxCell>
            </root>
        </mxGraphModel>
    </diagram>
    <diagram id="Q-4g8P_xVvHKgzBDjkkR" name="UI">
        <mxGraphModel dx="2203" dy="1352" grid="1" gridSize="10" guides="1" tooltips="1" connect="1" arrows="1" fold="1" page="1" pageScale="1" pageWidth="850" pageHeight="1100" math="0" shadow="0">
            <root>
                <mxCell id="0"/>
                <mxCell id="1" parent="0"/>
                <mxCell id="lhXiaI2EXPaCsuod3yhm-11" value="" style="rounded=1;whiteSpace=wrap;html=1;fillColor=#d5e8d4;strokeColor=#82b366;opacity=20;" parent="1" vertex="1">
                    <mxGeometry x="60" y="310" width="360" height="250" as="geometry"/>
                </mxCell>
                <mxCell id="lhXiaI2EXPaCsuod3yhm-1" value="Private" style="rounded=1;whiteSpace=wrap;html=1;fillColor=#d5e8d4;strokeColor=#82b366;" parent="1" vertex="1">
                    <mxGeometry x="80" y="480" width="310" height="60" as="geometry"/>
                </mxCell>
                <mxCell id="lhXiaI2EXPaCsuod3yhm-2" value="Public" style="rounded=1;whiteSpace=wrap;html=1;fillColor=#dae8fc;strokeColor=#6c8ebf;" parent="1" vertex="1">
                    <mxGeometry x="450" y="480" width="310" height="60" as="geometry"/>
                </mxCell>
                <mxCell id="lhXiaI2EXPaCsuod3yhm-3" value="sign up" style="rounded=1;whiteSpace=wrap;html=1;fillColor=#f9f7ed;strokeColor=#36393d;" parent="1" vertex="1">
                    <mxGeometry x="450" y="390" width="80" height="60" as="geometry"/>
                </mxCell>
                <mxCell id="lhXiaI2EXPaCsuod3yhm-4" value="login" style="rounded=1;whiteSpace=wrap;html=1;fillColor=#ffcc99;strokeColor=#36393d;" parent="1" vertex="1">
                    <mxGeometry x="565" y="390" width="80" height="60" as="geometry"/>
                </mxCell>
                <mxCell id="lhXiaI2EXPaCsuod3yhm-6" value="Password recover" style="rounded=1;whiteSpace=wrap;html=1;fillColor=#ffcccc;strokeColor=#36393d;" parent="1" vertex="1">
                    <mxGeometry x="680" y="390" width="80" height="60" as="geometry"/>
                </mxCell>
                <mxCell id="lhXiaI2EXPaCsuod3yhm-7" value="Wallets" style="rounded=1;whiteSpace=wrap;html=1;fillColor=#fff2cc;strokeColor=#d6b656;" parent="1" vertex="1">
                    <mxGeometry x="80" y="400" width="310" height="60" as="geometry"/>
                </mxCell>
                <mxCell id="lhXiaI2EXPaCsuod3yhm-10" value="Rate" style="rounded=1;whiteSpace=wrap;html=1;fillColor=#f8cecc;strokeColor=#b85450;" parent="1" vertex="1">
                    <mxGeometry x="80" y="330" width="310" height="60" as="geometry"/>
                </mxCell>
                <mxCell id="lhXiaI2EXPaCsuod3yhm-12" value="Context Provider - Authentication" style="text;html=1;strokeColor=none;fillColor=none;align=center;verticalAlign=middle;whiteSpace=wrap;rounded=0;opacity=20;" parent="1" vertex="1">
                    <mxGeometry x="70" y="580" width="340" height="30" as="geometry"/>
                </mxCell>
            </root>
        </mxGraphModel>
    </diagram>
    <diagram id="SGJSN6CK9ZWgLpx-SHGj" name="Libraries">
        <mxGraphModel dx="2203" dy="1352" grid="1" gridSize="10" guides="1" tooltips="1" connect="1" arrows="1" fold="1" page="1" pageScale="1" pageWidth="850" pageHeight="1100" math="0" shadow="0">
            <root>
                <mxCell id="0"/>
                <mxCell id="1" parent="0"/>
                <mxCell id="Qr9LOJDlCb6hLNAU_BJ8-2" value="" style="shape=image;verticalLabelPosition=bottom;labelBackgroundColor=default;verticalAlign=top;aspect=fixed;imageAspect=0;image=https://1000marcas.net/wp-content/uploads/2021/06/MongoDB-Logo.png;" vertex="1" parent="1">
                    <mxGeometry x="90" y="440" width="170" height="106.25" as="geometry"/>
                </mxCell>
                <mxCell id="Qr9LOJDlCb6hLNAU_BJ8-4" value="" style="shape=image;verticalLabelPosition=bottom;labelBackgroundColor=default;verticalAlign=top;aspect=fixed;imageAspect=0;image=https://res.cloudinary.com/practicaldev/image/fetch/s--m_Ng9MLF--/c_imagga_scale,f_auto,fl_progressive,h_420,q_auto,w_1000/https://dev-to-uploads.s3.amazonaws.com/i/fppjegg7q1kb2pdzmlvf.png;" vertex="1" parent="1">
                    <mxGeometry x="91.52" y="380" width="166.96" height="70" as="geometry"/>
                </mxCell>
                <mxCell id="Qr9LOJDlCb6hLNAU_BJ8-5" value="" style="shape=image;verticalLabelPosition=bottom;labelBackgroundColor=default;verticalAlign=top;aspect=fixed;imageAspect=0;image=https://static-00.iconduck.com/assets.00/nextjs-icon-2048x1234-pqycciiu.png;" vertex="1" parent="1">
                    <mxGeometry x="300" y="383.4" width="105" height="63.2" as="geometry"/>
                </mxCell>
                <mxCell id="Qr9LOJDlCb6hLNAU_BJ8-6" value="" style="shape=image;verticalLabelPosition=bottom;labelBackgroundColor=default;verticalAlign=top;aspect=fixed;imageAspect=0;image=https://miro.medium.com/v2/resize:fit:1400/1*I-4xa9KLw528gIu7gbZt5A.jpeg;" vertex="1" parent="1">
                    <mxGeometry x="286.51" y="464.8" width="131.98" height="74.37" as="geometry"/>
                </mxCell>
                <mxCell id="Qr9LOJDlCb6hLNAU_BJ8-8" value="" style="shape=image;verticalLabelPosition=bottom;labelBackgroundColor=default;verticalAlign=top;aspect=fixed;imageAspect=0;image=https://upload.wikimedia.org/wikipedia/commons/thumb/9/95/Tailwind_CSS_logo.svg/2560px-Tailwind_CSS_logo.svg.png;" vertex="1" parent="1">
                    <mxGeometry x="450" y="400" width="240" height="29.54" as="geometry"/>
                </mxCell>
                <mxCell id="Qr9LOJDlCb6hLNAU_BJ8-9" value="" style="shape=image;verticalLabelPosition=bottom;labelBackgroundColor=default;verticalAlign=top;aspect=fixed;imageAspect=0;image=https://upload.wikimedia.org/wikipedia/commons/thumb/d/d9/Node.js_logo.svg/2560px-Node.js_logo.svg.png;" vertex="1" parent="1">
                    <mxGeometry x="480" y="450" width="170" height="103.96" as="geometry"/>
                </mxCell>
                <mxCell id="Qr9LOJDlCb6hLNAU_BJ8-10" value="" style="shape=image;verticalLabelPosition=bottom;labelBackgroundColor=default;verticalAlign=top;aspect=fixed;imageAspect=0;image=https://static1.smartbear.co/swagger/media/assets/images/swagger_logo.svg;" vertex="1" parent="1">
                    <mxGeometry x="110" y="560" width="209.3" height="60" as="geometry"/>
                </mxCell>
                <mxCell id="Qr9LOJDlCb6hLNAU_BJ8-11" value="" style="shape=image;verticalLabelPosition=bottom;labelBackgroundColor=default;verticalAlign=top;aspect=fixed;imageAspect=0;image=https://railway.app/brand/logotype-dark.png;" vertex="1" parent="1">
                    <mxGeometry x="370" y="570" width="260" height="71.5" as="geometry"/>
                </mxCell>
            </root>
        </mxGraphModel>
    </diagram>
</mxfile>